PathFileType	4	(X/Y/Z)	Patient5_TMGait_0pt45_1_right_07.trc.trc
DataRate	CameraRate	NumFrames	NumMarkers	Units	OrigDataRate	OrigDataStartFrame	OrigNumFrames
59.071729957806	59.071729957806	7	32	mm	59.071729957806	18	       141
Frame#	Time	R.ASIS			L.ASIS			Chest			R.Shoulder			Neck			L.Shoulder			L.Elbow			L.Wrist			R.Elbow			R.Wrist			L.Thigh.Superior			L.Thigh.Lateral			L.Thigh.Inferior			L.Patella			L.Shank.Superior			L.Shank.Lateral			L.Shank.Inferior			L.Heel			L.Midfoot.Lateral			L.Midfoot.Superior			L.Toe			R.Thigh.Superior			R.Thigh.Lateral			R.Thigh.Inferior			R.Patella			R.Shank.Superior			R.Shank.Lateral			R.Shank.Inferior			R.Heel			R.Midfoot.Lateral			R.Midfoot.Superior			R.Toe			
		X1	Y1	Z1	X2	Y2	Z2	X3	Y3	Z3	X4	Y4	Z4	X5	Y5	Z5	X6	Y6	Z6	X7	Y7	Z7	X8	Y8	Z8	X9	Y9	Z9	X10	Y10	Z10	X11	Y11	Z11	X12	Y12	Z12	X13	Y13	Z13	X14	Y14	Z14	X15	Y15	Z15	X16	Y16	Z16	X17	Y17	Z17	X18	Y18	Z18	X19	Y19	Z19	X20	Y20	Z20	X21	Y21	Z21	X22	Y22	Z22	X23	Y23	Z23	X24	Y24	Z24	X25	Y25	Z25	X26	Y26	Z26	X27	Y27	Z27	X28	Y28	Z28	X29	Y29	Z29	X30	Y30	Z30	X31	Y31	Z31	X32	Y32	Z32	

18	11.457785714286	1012.834691661665	1001.677150932903	543.085258989802	1015.168870872106	958.382224644489	296.813189469191	1069.896549718340	1438.947877748843	439.361430233535	942.778478782341	1499.241876308919	588.778464693529	952.806059005072	1562.689788276482	406.504492650060	1044.511321374315	1510.242032870812	239.083602625648	1018.770095727274	1187.971499334370	101.167241446162	1159.573431539893	936.869834174050	125.803184827060	813.568554905617	1185.804340329737	705.892302083749	1025.218293098012	987.987288552955	686.629823192005	999.336359704424	730.757484539563	305.754804094570	911.243916588222	673.995327586145	262.765772383363	963.399305121936	604.779295248808	330.724647216316	929.639470899851	492.331449331514	337.562533703285	865.970152708477	399.982761933277	359.267164727510	789.496953404225	342.081522072966	281.364728011361	812.162750184700	285.422927680569	371.542184025621	642.479213008600	67.035845338345	370.044957919496	731.971389333371	36.367880091121	314.849808731969	829.895671883771	89.916134407392	360.961906168642	932.270769666455	43.542113056246	371.803972647509	1090.955342595380	796.312613689112	572.817316759552	1038.457272096750	704.540883277471	638.307924336351	1132.007498453944	675.220919192419	566.797203378279	1166.903047837752	582.352102040989	608.837502941608	1138.855938312078	469.821360858992	577.076141259682	1071.268016216232	396.261709299457	657.522103379305	1137.006108924815	329.602351849393	581.129847285847	1040.910931896448	98.453571623326	553.860152844793	1121.903042845757	63.233373375311	622.602594998775	1222.075074299832	139.203738744897	614.886119249582	1328.375854103077	103.177945406092	608.863776075274	
19	11.474714285714	1015.756424028302	997.971879801585	542.988463236921	1015.484935203970	957.217585538000	297.748246072972	1069.538835155807	1437.687965212701	441.028046900319	944.294227680495	1496.772676737742	592.493776070337	951.192335371642	1560.825705890748	410.249080068063	1040.417185803672	1509.337525160232	241.129511100751	1013.081357299439	1187.405489692356	102.607247555451	1153.661611690447	935.925057653542	125.603962657145	816.916279396210	1183.324213544562	711.145188813978	1027.553128246559	984.691739427177	688.782903326121	997.971440861556	729.524702809598	305.735228602282	908.821754201246	673.583928859211	263.371290636892	960.984055838496	603.719670638339	330.617815175460	925.794668268997	491.157565873925	337.449268581131	861.413634886856	399.528761740390	359.252413504964	783.794795202154	342.652925520392	281.735527212395	806.537744196765	285.617269756545	371.709731689366	635.114266865135	68.037482705524	370.212364701614	724.401676109792	36.951466403912	314.948842259584	822.554372053518	90.016729250197	360.754730357810	924.556588628442	43.520919855983	371.723757468327	1089.259788585170	789.284052101359	572.004065225459	1035.560082442295	697.388124163923	636.835569217347	1128.592809839639	666.865300876149	565.030391150018	1161.259534160864	573.511472200232	606.038206557524	1133.939646895192	462.312055136577	573.505840556308	1066.615160257363	387.963373362260	653.437277252007	1133.278066519551	322.079792452948	577.107497896668	1038.878580518620	90.956469663870	548.385975555661	1119.815200320782	55.214606436353	616.894811774925	1219.939202881278	131.244771208007	609.931646677344	1326.254723188390	95.350445775875	603.710917501136	
20	11.491642857143	1018.891079771812	993.908049100898	543.123239791958	1016.292693964478	955.943155942810	298.800071961340	1069.441876310157	1436.218690910366	442.924648108814	946.138756084611	1494.100360541004	596.411394398707	949.815477097908	1558.701013152689	414.232257649104	1036.486210671985	1508.124205785029	243.440992054841	1007.397059836950	1186.667778326884	104.091248255968	1147.593563714234	934.697722245074	125.175370893128	820.958519432389	1180.518685693907	716.660338167292	1030.777751910393	981.374699158908	690.857112566933	996.889725113052	728.144414447951	305.672895680003	906.647035260598	673.013448481423	264.038977281457	958.913919308810	602.496941369472	330.343970734149	922.382958018432	489.579746319014	337.078560267768	857.119548409335	398.883203728849	359.034682604978	778.175165749473	343.223632581489	281.955202189383	801.065156590991	285.597446864217	371.516161837777	627.720886591139	68.986248880442	370.225300406949	716.818411724905	37.420676402805	314.958366150735	815.184673001584	90.123956023041	360.427819543017	916.796167579934	43.530364373936	371.639444244522	1087.656128804767	781.703979621144	571.833460913776	1031.868667629846	689.871133596645	635.381065586254	1124.482214594964	658.045123484848	563.462079756672	1154.668800117617	564.202650363541	603.316769543628	1128.058576797564	454.448158661981	569.817989607000	1060.782390482757	379.363301791212	649.077548705565	1128.435719969729	314.220223224690	572.876893598752	1035.467283919163	83.312001347699	542.531141780620	1116.104182281656	47.260685280619	611.146611161818	1216.433120462495	122.927552739623	604.624407335096	1322.666451935891	86.817421779082	598.584273075367	
21	11.508571428571	1022.194025798920	989.598648717613	543.605025946818	1017.579623518977	954.571004341247	300.004192332859	1069.629251676469	1434.580105176154	445.072547321897	948.315726203251	1491.269037774650	600.528788433482	948.710078192285	1556.363330856410	418.454251705414	1032.754139077649	1506.616340139309	246.026627788693	1001.733157997672	1185.742320954035	105.684550686286	1141.373466628467	933.181035825506	124.550171990671	825.693997755476	1177.411617467729	722.387661152613	1034.855139808733	978.037374565877	692.833947088002	996.169470986346	726.635270954952	305.620829803382	904.830910811649	672.281702010056	264.788747157366	957.316995091004	601.107870545688	329.932581571268	919.529748417954	487.571927239411	336.436095067443	853.185188996551	398.010988908196	358.625480230170	772.726094082968	343.795061047715	282.037306730442	795.813652186186	285.355967673210	370.988194229510	620.299487390882	69.912753864852	370.068872244415	709.224550559053	37.783070379905	314.871062822534	807.794360820064	90.245974983541	359.981129136668	908.990768671080	43.574777888984	371.551716606085	1086.289836962794	773.866771692807	572.178456072519	1027.666424780373	682.314509251015	633.959693457899	1119.878273128204	649.139895617636	561.983782271381	1147.482328858302	554.841112429593	600.551490557029	1121.489736946916	446.573115087010	565.974389392013	1054.166986064956	370.838474939018	644.530160121316	1122.710697984435	306.364881702325	568.420857405585	1030.814788542921	75.820574013334	536.498220886118	1110.941933518468	39.890146849040	605.612768113020	1211.733639190289	114.715934265414	598.895517642124	1317.788542805302	78.003910791078	593.473593527430	
22	11.525500000000	1025.584787602083	985.241006271776	544.518713063155	1019.261885146111	953.120617762154	301.426139727518	1070.126885657571	1432.855045318647	447.487203777459	950.821828968469	1488.368885796477	604.833182868459	947.926676670853	1553.917849154807	422.898941608758	1029.270503227830	1504.884189704479	248.883665239531	996.094535779864	1184.654295065487	107.476475792741	1134.985708741609	931.410421194384	123.766801806390	831.137428087387	1174.062434647343	728.259914838598	1039.731214902356	974.676817999931	694.702686335237	995.882296721558	725.045854301991	305.668958053509	903.497070923831	671.409714964877	265.650102819554	956.318775072757	599.578318051114	329.465495017383	917.344174135088	485.162586318106	335.571442748761	849.714304582103	396.907340564009	358.072959978394	767.572628605182	344.380229388649	282.018003327242	790.860370546558	284.944559691857	370.232214719867	612.866812653160	70.896452756874	369.746900553987	701.632503946051	38.082401231097	314.693208035068	800.415140256626	90.394340911700	359.425935145324	901.151841823568	43.650338253093	371.463487055472	1085.221691852516	766.198020048953	572.822864426618	1023.338535259820	675.135228432288	632.624135912553	1115.071890430369	640.636593345205	560.507143678868	1140.160335115952	545.944181779685	597.664492929938	1114.604481140402	439.108334805562	562.011973358976	1047.285794574464	362.842316021308	639.978791029785	1116.429621381733	298.930614426790	563.805709012434	1025.153179818030	68.840805428998	530.572769002687	1104.623116281332	33.611319065036	600.574352843312	1206.106775192202	107.124016241855	592.799862912142	1311.898714745008	69.434511846473	588.446508159142	
23	11.542428571429	1028.943823715387	981.103952415515	545.907988953695	1021.207716960976	951.648612297305	303.141297514801	1070.960552758832	1431.172563862521	450.174867596660	953.642483683177	1485.545749617356	609.297440489284	947.531548215203	1551.532218490018	427.528464464191	1026.111858529441	1503.065534073345	251.996772822593	990.480819534827	1183.490964544626	109.573211658192	1128.390482887787	929.477177627204	122.874385296896	837.311610227866	1170.581258899935	734.190068895437	1045.342856835827	971.314383765786	696.460481774426	996.083645540198	723.467880650503	305.936584311418	902.775385964719	670.448790044497	266.656994517916	956.034128976868	597.981210400099	329.071687146138	915.921071633836	482.440903196183	334.599945424945	846.823865502639	395.610785166450	357.450660375823	762.882599976091	345.013317236559	281.944985934018	786.299484631735	284.469551241662	369.395290151569	605.467600707632	72.084364826652	369.282763530787	694.069326526739	38.409271429455	314.444653544003	793.113119632374	90.580777536010	358.782305459529	893.302741197308	43.744616087399	371.379699219883	1084.458720424119	759.217657903571	573.560905489769	1019.337696239814	668.796456054968	631.475018631200	1110.430435342638	633.080951060043	559.004509026820	1133.236739938688	538.071091142862	594.668340339450	1107.839249085058	432.502613703713	558.075387820056	1040.709206759246	355.855900611681	635.710659255380	1109.978058522551	292.360402722710	559.212752850844	1018.766945835931	62.758620285960	525.101142057458	1097.515542259021	28.808081944629	596.289967835809	1199.862953619836	100.616762508326	586.573997213038	1305.325932689844	61.641402424885	583.669460635390	
24	11.559357142857	1032.126735862580	977.487787490736	547.778154346425	1023.271543570108	950.271905167264	305.209134683301	1072.152107039205	1429.697592769886	453.129233013182	956.752196055150	1482.996146341735	613.879292469720	947.600071457839	1549.423090932759	432.282952274814	1023.390610335269	1501.361641264990	255.338780731680	984.894554453470	1182.412411384685	112.082787601505	1121.526726499250	927.533398013197	121.938826656167	844.229464372203	1167.136944552484	740.073951456139	1051.625687775374	968.027091871827	698.109767493565	996.807933335307	722.039448085213	306.549474949279	902.792349986443	669.482016490235	267.837327321154	956.566787456818	596.442770545053	328.899272431357	915.368946101842	479.543268678072	333.666692348784	844.655083529965	394.204015192615	356.830385921183	758.865941486544	345.754692859108	281.856283455714	782.254046939543	284.077550107296	368.617082979099	598.184302044799	73.696054839361	368.712624340732	686.580851428347	38.900644858039	314.153794787651	785.993650581373	90.812126680912	358.072201959442	885.478050617357	43.838989169113	371.306295418813	1084.003713810506	753.449434306454	574.293606297722	1016.112271888686	663.723850704329	630.657021136030	1106.357949774816	626.983394766641	557.548207794867	1127.243280222615	531.719654190921	591.704952669826	1101.633637408826	427.147335362062	554.425334672655	1034.949609994819	350.303199861723	632.087675645985	1103.731972933834	287.039888578267	554.940094109193	1011.927691974298	57.916022596042	520.436600169356	1089.979944637803	25.632981804306	592.942908761089	1193.284384305428	95.505398345540	580.635840336418	1298.374446401968	55.058825049466	579.392028060037	
